<?xml version="1.0" encoding="utf-8"?>
<!-- Generator: Adobe Illustrator 28.2.0, SVG Export Plug-In . SVG Version: 6.00 Build 0)  -->
<svg version="1.1" id="a" xmlns="http://www.w3.org/2000/svg" xmlns:xlink="http://www.w3.org/1999/xlink" x="0px" y="0px"
	 viewBox="0 0 24 110.1" style="enable-background:new 0 0 24 110.1;" xml:space="preserve">
<polygon points="21.9,2.7 19.3,0.1 12,7.3 4.7,0.1 2.1,2.7 9.4,10 2.1,17.3 4.7,19.9 12,12.6 19.3,19.9 21.9,17.3 14.6,10 "/>
<polygon points="12.3,25.2 9.9,28.1 16,33.3 0,33.3 0,37.1 16,37.1 9.9,42.3 12.3,45.2 24,35.2 "/>
<path d="M24,55.6H0v-3.8h24V55.6z M24,65.1H0v3.8h24V65.1z M24,58.5H0v3.8h24V58.5z"/>
<polygon points="13.9,95.4 13.9,87.4 21.9,87.4 21.9,83.6 13.9,83.6 13.9,75.6 10.1,75.6 10.1,83.6 2.1,83.6 2.1,87.4 10.1,87.4 
	10.1,95.4 "/>
<rect x="2.1" y="102.2" width="19.8" height="3.8"/>
</svg>
